<svg xmlns="http://www.w3.org/2000/svg" width="1200" height="630" viewBox="0 0 1200 630" role="img" aria-labelledby="title desc">
  <title id="title">Blink and Find repository thumbnail</title>
  <desc id="desc">A colorful repository preview for a number hunting memory game with a target card, scattered number board, game modes, and multiplayer indicators.</desc>
  <defs>
    <linearGradient id="bg" x1="0" y1="0" x2="1" y2="1">
      <stop offset="0" stop-color="#fff7fd"/>
      <stop offset="0.32" stop-color="#f4edff"/>
      <stop offset="0.68" stop-color="#ecfeff"/>
      <stop offset="1" stop-color="#fff7d6"/>
    </linearGradient>
    <linearGradient id="rainbow" x1="0" y1="0" x2="1" y2="0">
      <stop offset="0" stop-color="#7c3aed"/>
      <stop offset="0.28" stop-color="#ec4899"/>
      <stop offset="0.54" stop-color="#f97316"/>
      <stop offset="0.78" stop-color="#06b6d4"/>
      <stop offset="1" stop-color="#22c55e"/>
    </linearGradient>
    <filter id="shadow" x="-30%" y="-30%" width="160%" height="160%">
      <feDropShadow dx="0" dy="18" stdDeviation="20" flood-color="#52379c" flood-opacity="0.18"/>
    </filter>
  </defs>

  <rect width="1200" height="630" rx="28" fill="url(#bg)"/>
  <circle cx="80" cy="70" r="180" fill="#ec4899" opacity="0.16"/>
  <circle cx="1100" cy="85" r="210" fill="#06b6d4" opacity="0.15"/>
  <circle cx="1030" cy="590" r="190" fill="#22c55e" opacity="0.13"/>
  <circle cx="160" cy="590" r="190" fill="#fbbf24" opacity="0.18"/>

  <g transform="translate(66 70)">
    <text x="0" y="0" fill="#6d28d9" font-family="Arial,sans-serif" font-size="16" font-weight="800" letter-spacing="4">NUMBER HUNTING MEMORY GAME</text>
    <text x="0" y="86" fill="#182033" font-family="Arial,sans-serif" font-size="72" font-weight="900">Blink &amp; Find</text>
    <rect x="0" y="108" width="438" height="8" rx="4" fill="url(#rainbow)"/>
    <text x="0" y="166" fill="#4b3f62" font-family="Arial,sans-serif" font-size="23">Memorize the target. Hide it. Hunt it faster.</text>

    <g transform="translate(0 214)">
      <rect width="474" height="118" rx="24" fill="#ffffff" fill-opacity="0.84" stroke="#eadcff" filter="url(#shadow)"/>
      <text x="28" y="34" fill="#6d28d9" font-family="Arial,sans-serif" font-size="13" font-weight="800" letter-spacing="2">GAME LOOP</text>
      <g transform="translate(28 54)">
        <circle cx="20" cy="20" r="20" fill="#7c3aed"/><text x="20" y="27" text-anchor="middle" fill="#fff" font-family="Arial,sans-serif" font-size="18" font-weight="900">1</text>
        <text x="52" y="27" fill="#182033" font-family="Arial,sans-serif" font-size="18" font-weight="800">Memorize</text>
        <circle cx="177" cy="20" r="20" fill="#ec4899"/><text x="177" y="27" text-anchor="middle" fill="#fff" font-family="Arial,sans-serif" font-size="18" font-weight="900">2</text>
        <text x="209" y="27" fill="#182033" font-family="Arial,sans-serif" font-size="18" font-weight="800">Find</text>
        <circle cx="314" cy="20" r="20" fill="#06b6d4"/><text x="314" y="27" text-anchor="middle" fill="#fff" font-family="Arial,sans-serif" font-size="18" font-weight="900">3</text>
        <text x="346" y="27" fill="#182033" font-family="Arial,sans-serif" font-size="18" font-weight="800">Race</text>
      </g>
    </g>

    <g transform="translate(0 370)">
      <rect width="132" height="42" rx="21" fill="#ffffff" fill-opacity="0.86" stroke="#eadcff"/>
      <text x="66" y="27" text-anchor="middle" fill="#6d28d9" font-family="Arial,sans-serif" font-size="14" font-weight="800">SOLO</text>
      <rect x="144" width="158" height="42" rx="21" fill="#ffffff" fill-opacity="0.86" stroke="#eadcff"/>
      <text x="223" y="27" text-anchor="middle" fill="#ec4899" font-family="Arial,sans-serif" font-size="14" font-weight="800">SAME DEVICE</text>
      <rect x="314" width="160" height="42" rx="21" fill="#ffffff" fill-opacity="0.86" stroke="#eadcff"/>
      <text x="394" y="27" text-anchor="middle" fill="#0891b2" font-family="Arial,sans-serif" font-size="14" font-weight="800">ONLINE RACE</text>
    </g>

    <g transform="translate(0 446)">
      <rect width="196" height="52" rx="14" fill="#7c3aed"/>
      <text x="98" y="33" text-anchor="middle" fill="#ffffff" font-family="Arial,sans-serif" font-size="14" font-weight="900" letter-spacing="2">CASE STUDY</text>
      <text x="218" y="33" fill="#4b3f62" font-family="Arial,sans-serif" font-size="15">Next.js · Supabase · Playwright · PWA</text>
    </g>
  </g>

  <g transform="translate(620 54)" filter="url(#shadow)">
    <rect width="510" height="522" rx="30" fill="#ffffff" fill-opacity="0.92" stroke="#ffffff"/>
    <g transform="translate(30 28)">
      <rect width="450" height="92" rx="22" fill="#f3f0ff" stroke="#eadcff"/>
      <text x="24" y="30" fill="#4b3f62" font-family="Arial,sans-serif" font-size="12" font-weight="800" letter-spacing="2">MEMORIZE TARGET</text>
      <text x="225" y="72" text-anchor="middle" fill="#102a56" font-family="Arial,sans-serif" font-size="54" font-weight="900">42</text>
      <rect x="352" y="25" width="72" height="42" rx="21" fill="#dcfce7"/>
      <text x="388" y="51" text-anchor="middle" fill="#15803d" font-family="Arial,sans-serif" font-size="13" font-weight="800">READY</text>
    </g>

    <g transform="translate(34 148)">
      <rect width="442" height="288" rx="26" fill="#f8fbff" stroke="#d9e4f2"/>
      <text x="20" y="30" fill="#667085" font-family="Arial,sans-serif" font-size="12" font-weight="800" letter-spacing="2">SCATTERED BOARD</text>

      <g font-family="Arial,sans-serif" font-weight="900" text-anchor="middle">
        <g transform="translate(48 58) rotate(-7)"><rect width="62" height="54" rx="14" fill="#ffffff" stroke="#7c3aed"/><text x="31" y="35" fill="#182033" font-size="22">17</text></g>
        <g transform="translate(142 49) rotate(5)"><rect width="62" height="54" rx="14" fill="#fff1c7" stroke="#f97316"/><text x="31" y="35" fill="#182033" font-size="22">8</text></g>
        <g transform="translate(246 64) rotate(-4)"><rect width="62" height="54" rx="14" fill="#dff7ff" stroke="#06b6d4"/><text x="31" y="35" fill="#182033" font-size="22">63</text></g>
        <g transform="translate(348 50) rotate(8)"><rect width="62" height="54" rx="14" fill="#fce7f3" stroke="#ec4899"/><text x="31" y="35" fill="#182033" font-size="22">31</text></g>

        <g transform="translate(28 142) rotate(6)"><rect width="62" height="54" rx="14" fill="#dcfce7" stroke="#22c55e"/><text x="31" y="35" fill="#182033" font-size="22">25</text></g>
        <g transform="translate(126 128) rotate(-5)"><rect width="70" height="62" rx="16" fill="#7c3aed" stroke="#4c1d95"/><text x="35" y="40" fill="#ffffff" font-size="26">42</text></g>
        <g transform="translate(238 145) rotate(7)"><rect width="62" height="54" rx="14" fill="#ffffff" stroke="#fbbf24"/><text x="31" y="35" fill="#182033" font-size="22">54</text></g>
        <g transform="translate(344 133) rotate(-6)"><rect width="62" height="54" rx="14" fill="#eef6ff" stroke="#2563eb"/><text x="31" y="35" fill="#182033" font-size="22">11</text></g>

        <g transform="translate(62 220) rotate(-5)"><rect width="62" height="54" rx="14" fill="#fff1c7" stroke="#f97316"/><text x="31" y="35" fill="#182033" font-size="22">39</text></g>
        <g transform="translate(176 211) rotate(8)"><rect width="62" height="54" rx="14" fill="#dff7ff" stroke="#06b6d4"/><text x="31" y="35" fill="#182033" font-size="22">72</text></g>
        <g transform="translate(286 222) rotate(-7)"><rect width="62" height="54" rx="14" fill="#fce7f3" stroke="#ec4899"/><text x="31" y="35" fill="#182033" font-size="22">4</text></g>
      </g>
    </g>

    <g transform="translate(34 458)">
      <rect width="134" height="38" rx="12" fill="#7c3aed"/><text x="67" y="25" text-anchor="middle" fill="#fff" font-family="Arial,sans-serif" font-size="13" font-weight="900">LIVE RACE</text>
      <rect x="152" width="134" height="38" rx="12" fill="#06b6d4"/><text x="219" y="25" text-anchor="middle" fill="#fff" font-family="Arial,sans-serif" font-size="13" font-weight="900">SEEDED BOARD</text>
      <rect x="304" width="138" height="38" rx="12" fill="#22c55e"/><text x="373" y="25" text-anchor="middle" fill="#fff" font-family="Arial,sans-serif" font-size="13" font-weight="900">PWA READY</text>
    </g>
  </g>

  <text x="1130" y="607" text-anchor="end" fill="#6d28d9" opacity="0.72" font-family="Arial,sans-serif" font-size="13" font-weight="800" letter-spacing="3">NISCHHALSUBBA / BLINK-AND-FIND</text>
</svg>